<svg xmlns:xlink="http://www.w3.org/1999/xlink" xmlns="http://www.w3.org/2000/svg" width="396" height="140.4343551088756" viewBox="0 0 290 102.84334086256041" class="css-1j8o68f"><defs id="SvgjsDefs1009"></defs><g id="SvgjsG1010" featurekey="ewgXDI-0" transform="matrix(3.9012069702148438,0,0,3.9012069702148438,-12.49723869753814,27.41115728869413)" fill="#333333"><path d="M17.305 12.5 c-0.1823 -0.4948 -0.44266 -0.92441 -0.78121 -1.289 c-0.23438 -0.26043 -0.61199 -0.55992 -1.1328 -0.89848 c-0.57293 -0.28645 -1.0807 -0.50781 -1.5234 -0.66406 c0.3125 -0.1823 0.65105 -0.39063 1.0156 -0.625 c0.36457 -0.3125 0.63801 -0.61199 0.82031 -0.89844 c0.23438 -0.3125 0.42969 -0.69012 0.58594 -1.1328 c0.15625 -0.46875 0.23438 -0.97656 0.23438 -1.5234 c0 -1.4583 -0.54688 -2.6172 -1.6406 -3.4766 s-2.5781 -1.2891 -4.4531 -1.2891 l-7.2266 0 l0 2.8906 l6.8359 0 c0.98957 0 1.7969 0.20832 2.4219 0.625 c0.54688 0.41668 0.82031 1.0156 0.82031 1.7969 c0 0.88543 -0.3125 1.5234 -0.9375 1.9141 c-0.65105 0.41668 -1.4974 0.625 -2.5391 0.625 l-6.6016 0 l0 2.7344 l7.3047 0 c1.25 0 2.2005 0.22137 2.8516 0.66406 c0.625 0.46875 0.9375 1.0938 0.9375 1.875 c0 0.83332 -0.3125 1.4713 -0.9375 1.914 c-0.65105 0.4427 -1.5234 0.66406 -2.6172 0.66406 l-7.5391 0 l0 2.8906 l7.5 0 c1.0156 0 1.9531 -0.11719 2.8125 -0.35156 c0.88543 -0.26043 1.6016 -0.58594 2.1484 -0.97656 s1.0156 -0.92449 1.4063 -1.6016 c0.3125 -0.625 0.46875 -1.3542 0.46875 -2.1875 c0 -0.65105 -0.078125 -1.2109 -0.23438 -1.6797 z M31.641 8.437 l0 -7.7734 l-3.2813 0 l0 18.672 l3.2813 0 l0 -10.898 z M48.6719 16.3281 c-0.39063 -0.078125 -0.75523 -0.19535 -1.0938 -0.3516 c-0.72918 -0.33855 -1.3672 -0.8073 -1.9141 -1.4063 c-0.52082 -0.54688 -0.9375 -1.2239 -1.25 -2.0313 c-0.28645 -0.8073 -0.42969 -1.6276 -0.42969 -2.4609 l0 -0.078125 l0 -0.11719 c0 -0.85938 0.14324 -1.6927 0.42969 -2.5 c0.33855 -0.83332 0.75523 -1.4974 1.25 -1.9922 c0.52082 -0.59895 1.1458 -1.0547 1.875 -1.3672 c0.4427 -0.20832 0.82031 -0.33852 1.1328 -0.39059 l0 -2.9297 c-0.91145 0.1302 -1.7188 0.35156 -2.4219 0.66406 c-1.1458 0.4948 -2.1224 1.1589 -2.9297 1.9922 s-1.4453 1.8229 -1.9141 2.9687 s-0.70313 2.3438 -0.70313 3.5938 l0 0.078125 l0 0.11719 c0 1.2761 0.23438 2.474 0.70313 3.5938 c0.41668 1.1198 1.0417 2.0964 1.875 2.9297 c0.83332 0.85938 1.8099 1.5234 2.9297 1.9922 c0.70313 0.3125 1.5234 0.53387 2.4609 0.66406 l0 -2.9688 z M59.297 10 l0.000038147 -0.11719 c0 -1.2761 -0.23438 -2.474 -0.70313 -3.5938 c-0.46875 -1.1458 -1.1068 -2.1354 -1.9141 -2.9687 c-0.78125 -0.83332 -1.7448 -1.4844 -2.8906 -1.9531 c-0.65105 -0.3125 -1.4453 -0.53387 -2.3828 -0.66406 l0 2.9688 l0.46875 0.15625 c0.23438 0.078125 0.41668 0.14324 0.54688 0.19531 c0.72918 0.33855 1.3672 0.8073 1.9141 1.4063 c0.52082 0.54688 0.9375 1.2239 1.25 2.0313 c0.28645 0.8073 0.42969 1.6276 0.42969 2.4609 l0 0.078125 l0 0.11719 c0 0.85938 -0.14324 1.6927 -0.42969 2.5 c-0.33855 0.83332 -0.75523 1.4974 -1.25 1.9922 c-0.52082 0.59895 -1.1458 1.0547 -1.875 1.3672 c-0.33855 0.15625 -0.69012 0.27344 -1.0547 0.35156 l0 2.9688 c0.78125 -0.10418 1.5625 -0.32555 2.3438 -0.6641 c1.0677 -0.4427 2.0443 -1.1068 2.9297 -1.9922 c0.85938 -0.91145 1.4974 -1.901 1.9141 -2.9687 c0.46875 -1.1458 0.70313 -2.3438 0.70313 -3.5938 l0 -0.078125 z M71.641 3.75 l5.8984 0 l0 -3.0469 l-15.078 0 l0 3.0469 l9.1797 0 z M68.3594 6.797000000000001 l3.2813 0 l0 12.5 l-3.2813 0 l0 -12.5 z" fill="#333333"></path></g></svg>