<svg width="286" height="41" viewBox="0 0 286 41" fill="none" xmlns="http://www.w3.org/2000/svg">
<path d="M4 10.721C29.8896 10.721 55.7826 10.8553 81.6698 10.4421C113.554 9.93316 145.473 9.08207 177.328 7.58353C194.557 6.77303 211.756 5.23102 228.991 4.58551C243.165 4.05465 257.408 4.44606 271.591 4.44606C273.17 4.44606 280.816 3.35508 281.91 4.58551C282.683 5.45549 279.677 5.26802 278.528 5.45703C270.606 6.76069 262.614 7.60685 254.649 8.59449C235.43 10.9776 216.357 14.252 197.233 17.2748C183.115 19.5063 168.8 20.7079 154.738 23.236C151.359 23.8435 148.486 24.3891 153.378 24.5607C163.299 24.9088 173.183 25.1534 183.115 25.1534C200.213 25.1534 251.186 24.3812 234.36 27.4193C224.938 29.1205 215.569 31.0591 206.192 32.997C200.476 34.1784 194.85 36.1191 189.111 37.0757" stroke="#BAFF39" stroke-width="7" stroke-linecap="round"/>
</svg>
